<svg width="153" height="174" viewBox="0 0 153 174" fill="none" xmlns="http://www.w3.org/2000/svg">
<path d="M67.7178 10.8631C69.3695 7.0645 73.7878 5.32409 77.5864 6.97576C81.385 8.62743 83.1254 13.0457 81.4737 16.8443L16.7465 165.707C15.0948 169.505 10.6765 171.246 6.87795 169.594C3.07937 167.942 1.33895 163.524 2.99062 159.725L67.7178 10.8631Z" fill="#595DC8"/>
<path d="M135.916 6.87796C137.568 3.07937 141.986 1.33895 145.785 2.99062C149.583 4.64229 151.324 9.0606 149.672 12.8592L82.7465 166.778C81.0949 170.576 76.6766 172.317 72.878 170.665C69.0794 169.013 67.339 164.595 68.9906 160.796L135.916 6.87796Z" fill="#595DC8"/>
<path d="M68 12.9851C68 9.11915 71.134 5.98514 75 5.98514C78.866 5.98514 82 9.11915 82 12.9851V163.985C82 167.851 78.866 170.985 75 170.985C71.134 170.985 68 167.851 68 163.985V12.9851Z" fill="#595DC8"/>
<path d="M137 9.98514C137 6.11915 140.134 2.98514 144 2.98514C147.866 2.98514 151 6.11915 151 9.98514V163.985C151 167.851 147.866 170.985 144 170.985C140.134 170.985 137 167.851 137 163.985V9.98514Z" fill="#595DC8"/>
</svg>
